<svg
  t="1770190730665"
  class="icon"
  viewBox="0 0 1024 1024"
  version="1.1"
  xmlns="http://www.w3.org/2000/svg"
  p-id="8109"
  width="200"
  height="200"
>
  <path
    d="M0 0m153.6 0l716.8 0q153.6 0 153.6 153.6l0 716.8q0 153.6-153.6 153.6l-716.8 0q-153.6 0-153.6-153.6l0-716.8q0-153.6 153.6-153.6Z"
    fill="#B47AF0"
    p-id="8110"
  />
  <path
    d="M512 204.8a307.3024 307.3024 0 0 1 296.2944 388.608 153.6 153.6 0 0 0-214.9376 214.784A307.3024 307.3024 0 0 1 204.8 512c0.0512-169.5232 137.6768-307.1488 307.2512-307.1488z m0.3072 177.5616a18.432 18.432 0 0 0-18.432 18.432v222.4128c0 11.0592 7.3728 18.432 18.432 18.432s18.432-7.3728 18.432-18.432V400.7936a18.432 18.432 0 0 0-18.432-18.432z m-75.264 37.1712a18.432 18.432 0 0 0-18.432 18.432v148.0704c0 11.0592 7.3728 18.432 18.432 18.432s19.6608-7.3728 19.6608-18.432V437.9648c0-11.0592-10.4448-18.432-19.6608-18.432z m150.528 0a18.432 18.432 0 0 0-18.432 18.432v148.0704c0 11.0592 7.3728 18.432 18.432 18.432s18.432-7.3728 18.432-18.432V437.9648a18.432 18.432 0 0 0-18.432-18.432z m-225.1776 46.08a18.432 18.432 0 0 0-18.432 18.432v55.6032c0 11.0592 7.3728 18.432 18.432 18.432s19.6608-7.3728 19.6608-16.5888V484.0448c0-11.0592-10.4448-18.432-19.6608-18.432z m299.2128 0a18.432 18.432 0 0 0-18.432 18.432v55.6032c0 11.0592 7.3728 18.432 18.432 18.432s18.432-7.3728 18.432-16.5888V484.0448a18.432 18.432 0 0 0-18.432-18.432z"
    fill="#FFFFFF"
    p-id="8111"
  />
  <path
    d="M716.8 819.2a102.4 102.4 0 1 0 0-204.8 102.4 102.4 0 0 0 0 204.8z m-43.8272-69.4272l36.1472-36.1472V670.72a7.68 7.68 0 0 1 15.36 0v46.08a7.68 7.68 0 0 1-2.2528 5.4272l-38.4 38.4a7.68 7.68 0 1 1-10.8544-10.8544z"
    fill="#FFFFFF"
    p-id="8112"
  />
</svg>



  t="1770190730665"
  class="icon"
  viewBox="0 0 1024 1024"
  version="1.1"
  xmlns="http://www.w3.org/2000/svg"
  p-id="8109"
  width="200"
  height="200"
>
  <path
    d="M0 0m153.6 0l716.8 0q153.6 0 153.6 153.6l0 716.8q0 153.6-153.6 153.6l-716.8 0q-153.6 0-153.6-153.6l0-716.8q0-153.6 153.6-153.6Z"
    fill="#B47AF0"
    p-id="8110"
  />
  <path
    d="M512 204.8a307.3024 307.3024 0 0 1 296.2944 388.608 153.6 153.6 0 0 0-214.9376 214.784A307.3024 307.3024 0 0 1 204.8 512c0.0512-169.5232 137.6768-307.1488 307.2512-307.1488z m0.3072 177.5616a18.432 18.432 0 0 0-18.432 18.432v222.4128c0 11.0592 7.3728 18.432 18.432 18.432s18.432-7.3728 18.432-18.432V400.7936a18.432 18.432 0 0 0-18.432-18.432z m-75.264 37.1712a18.432 18.432 0 0 0-18.432 18.432v148.0704c0 11.0592 7.3728 18.432 18.432 18.432s19.6608-7.3728 19.6608-18.432V437.9648c0-11.0592-10.4448-18.432-19.6608-18.432z m150.528 0a18.432 18.432 0 0 0-18.432 18.432v148.0704c0 11.0592 7.3728 18.432 18.432 18.432s18.432-7.3728 18.432-18.432V437.9648a18.432 18.432 0 0 0-18.432-18.432z m-225.1776 46.08a18.432 18.432 0 0 0-18.432 18.432v55.6032c0 11.0592 7.3728 18.432 18.432 18.432s19.6608-7.3728 19.6608-16.5888V484.0448c0-11.0592-10.4448-18.432-19.6608-18.432z m299.2128 0a18.432 18.432 0 0 0-18.432 18.432v55.6032c0 11.0592 7.3728 18.432 18.432 18.432s18.432-7.3728 18.432-16.5888V484.0448a18.432 18.432 0 0 0-18.432-18.432z"
    fill="#FFFFFF"
    p-id="8111"
  />
  <path
    d="M716.8 819.2a102.4 102.4 0 1 0 0-204.8 102.4 102.4 0 0 0 0 204.8z m-43.8272-69.4272l36.1472-36.1472V670.72a7.68 7.68 0 0 1 15.36 0v46.08a7.68 7.68 0 0 1-2.2528 5.4272l-38.4 38.4a7.68 7.68 0 1 1-10.8544-10.8544z"
    fill="#FFFFFF"
    p-id="8112"
  />
</svg>

























