<svg viewBox="0 30 1200 195" xmlns="http://www.w3.org/2000/svg">
  <defs>
    <linearGradient id="bg2" x1="0%" y1="0%" x2="100%" y2="100%">
      <stop offset="0%" style="stop-color:#161616"/>
      <stop offset="100%" style="stop-color:#181d19"/>
    </linearGradient>
    <radialGradient id="orb2" cx="75%" cy="50%" r="40%">
      <stop offset="0%" style="stop-color:#52c41a;stop-opacity:0.05"/>
      <stop offset="100%" style="stop-color:#52c41a;stop-opacity:0"/>
    </radialGradient>
  </defs>
  <rect width="1200" height="225" fill="url(#bg2)"/>
  <rect width="1200" height="225" fill="url(#orb2)"/>
  <!-- 对话气泡装饰 -->
  <g transform="translate(820, 40)" opacity="0.035">
    <rect x="0" y="0" width="140" height="50" rx="10" fill="#52c41a"/>
    <rect x="50" y="40" width="160" height="50" rx="10" fill="#73d13d"/>
    <rect x="10" y="85" width="120" height="45" rx="10" fill="#52c41a"/>
  </g>
  <!-- 图标 -->
  <g transform="translate(72, 62)">
    <circle cx="44" cy="44" r="40" fill="#52c41a" opacity="0.05" stroke="#52c41a" stroke-opacity="0.08" stroke-width="1"/>
    <circle cx="34" cy="34" r="10" fill="none" stroke="#73d13d" stroke-width="1.5" opacity="0.35"/>
    <path d="M20 58 C20 48 26 43 34 43 C42 43 48 48 48 58" fill="none" stroke="#73d13d" stroke-width="1.5" stroke-linecap="round" opacity="0.35"/>
    <circle cx="56" cy="30" r="8" fill="none" stroke="#95de64" stroke-width="1.3" opacity="0.3"/>
    <path d="M46 50 C46 42 50 38 56 38 C62 38 66 42 66 50" fill="none" stroke="#95de64" stroke-width="1.3" stroke-linecap="round" opacity="0.3"/>
  </g>
  <!-- 文案 -->
  <text x="190" y="86" font-family="'HarmonyOS Sans SC', Arial, sans-serif" font-size="26" fill="#ffffff" font-weight="600" opacity="0.8">多角色配音</text>
  <text x="190" y="116" font-family="'HarmonyOS Sans SC', Arial, sans-serif" font-size="14" fill="#73d13d" font-weight="500" opacity="0.5" letter-spacing="1.5">一键生成多人对话</text>
  <text x="190" y="146" font-family="'HarmonyOS Sans SC', Arial, sans-serif" font-size="12" fill="#ffffff" opacity="0.25">支持多角色分配 · 智能断句 · 情感控制 · 批量导出</text>
  <!-- CTA -->
  <rect x="190" y="162" width="96" height="30" rx="15" fill="#52c41a" opacity="0.55"/>
  <text x="238" y="182" font-family="'HarmonyOS Sans SC', Arial, sans-serif" font-size="12" fill="#ffffff" text-anchor="middle" font-weight="500" opacity="0.85">开始创作</text>
</svg>
