<svg viewBox="0 30 1200 195" xmlns="http://www.w3.org/2000/svg">
  <defs>
    <linearGradient id="bg1" x1="0%" y1="0%" x2="100%" y2="100%">
      <stop offset="0%" style="stop-color:#161616"/>
      <stop offset="100%" style="stop-color:#1a1d24"/>
    </linearGradient>
    <radialGradient id="orb1" cx="75%" cy="50%" r="40%">
      <stop offset="0%" style="stop-color:#1677ff;stop-opacity:0.06"/>
      <stop offset="100%" style="stop-color:#1677ff;stop-opacity:0"/>
    </radialGradient>
  </defs>
  <rect width="1200" height="225" fill="url(#bg1)"/>
  <rect width="1200" height="225" fill="url(#orb1)"/>
  <!-- 音频波形 -->
  <g transform="translate(820, 45)" opacity="0.04">
    <rect x="0" y="50" width="3" height="80" rx="1.5" fill="#4096ff"/>
    <rect x="12" y="30" width="3" height="120" rx="1.5" fill="#4096ff"/>
    <rect x="24" y="45" width="3" height="90" rx="1.5" fill="#1677ff"/>
    <rect x="36" y="15" width="3" height="150" rx="1.5" fill="#4096ff"/>
    <rect x="48" y="40" width="3" height="100" rx="1.5" fill="#1677ff"/>
    <rect x="60" y="25" width="3" height="130" rx="1.5" fill="#4096ff"/>
    <rect x="72" y="50" width="3" height="80" rx="1.5" fill="#1677ff"/>
    <rect x="84" y="10" width="3" height="160" rx="1.5" fill="#4096ff"/>
    <rect x="96" y="35" width="3" height="110" rx="1.5" fill="#1677ff"/>
    <rect x="108" y="20" width="3" height="140" rx="1.5" fill="#4096ff"/>
  </g>
  <!-- 图标 -->
  <g transform="translate(72, 62)">
    <circle cx="44" cy="44" r="40" fill="#1677ff" opacity="0.05" stroke="#1677ff" stroke-opacity="0.08" stroke-width="1"/>
    <path d="M44 18 C34 18 26 26 26 36 V50 C26 60 34 68 44 68 C54 68 62 60 62 50 V36 C62 26 54 18 44 18Z" fill="none" stroke="#4096ff" stroke-width="1.5" opacity="0.35"/>
    <path d="M18 46 C18 62 30 74 44 74 C58 74 70 62 70 46" fill="none" stroke="#4096ff" stroke-width="1.5" stroke-linecap="round" opacity="0.35"/>
    <line x1="44" y1="74" x2="44" y2="82" stroke="#4096ff" stroke-width="1.5" stroke-linecap="round" opacity="0.35"/>
    <line x1="34" y1="82" x2="54" y2="82" stroke="#4096ff" stroke-width="1.5" stroke-linecap="round" opacity="0.35"/>
  </g>
  <!-- 文案 -->
  <text x="190" y="86" font-family="'HarmonyOS Sans SC', Arial, sans-serif" font-size="26" fill="#ffffff" font-weight="600" opacity="0.8">丸子配音</text>
  <text x="190" y="116" font-family="'HarmonyOS Sans SC', Arial, sans-serif" font-size="14" fill="#4096ff" font-weight="500" opacity="0.5" letter-spacing="1.5">智能语音创作平台</text>
  <text x="190" y="146" font-family="'HarmonyOS Sans SC', Arial, sans-serif" font-size="12" fill="#ffffff" opacity="0.25">高品质 AI 配音 · 多角色对话 · 字幕生成 · 音频对轴</text>
  <!-- CTA -->
  <rect x="190" y="162" width="96" height="30" rx="15" fill="#1677ff" opacity="0.6"/>
  <text x="238" y="182" font-family="'HarmonyOS Sans SC', Arial, sans-serif" font-size="12" fill="#ffffff" text-anchor="middle" font-weight="500" opacity="0.85">立即体验</text>
</svg>
